<mxfile host="app.diagrams.net" modified="2020-11-18T02:40:40.907Z" agent="5.0 (Windows NT 10.0; Win64; x64) AppleWebKit/537.36 (KHTML, like Gecko) Chrome/86.0.4240.198 Safari/537.36" etag="phscCTmc9cFqui-QqK3z" version="13.9.9" type="github">
  <diagram id="ZVUyzf1_lCy0eXDHObuF" name="Page-1">
    <mxGraphModel dx="1038" dy="556" grid="1" gridSize="10" guides="1" tooltips="1" connect="1" arrows="1" fold="1" page="1" pageScale="1" pageWidth="850" pageHeight="1100" math="0" shadow="0">
      <root>
        <mxCell id="0" />
        <mxCell id="1" parent="0" />
        <mxCell id="C6Ept4q3sVwMuoM6jzrB-2" value="print&lt;br&gt;Receipt" style="rounded=0;whiteSpace=wrap;html=1;" vertex="1" parent="1">
          <mxGeometry x="160" y="80" width="80" height="440" as="geometry" />
        </mxCell>
        <mxCell id="C6Ept4q3sVwMuoM6jzrB-3" value="" style="endArrow=classic;html=1;entryX=-0.033;entryY=0.096;entryDx=0;entryDy=0;entryPerimeter=0;" edge="1" parent="1">
          <mxGeometry width="50" height="50" relative="1" as="geometry">
            <mxPoint x="10" y="119" as="sourcePoint" />
            <mxPoint x="160.01999999999998" y="119.24000000000007" as="targetPoint" />
          </mxGeometry>
        </mxCell>
        <mxCell id="C6Ept4q3sVwMuoM6jzrB-4" value="tags: string[]" style="text;html=1;align=center;verticalAlign=middle;resizable=0;points=[];autosize=1;" vertex="1" parent="1">
          <mxGeometry x="40" y="100" width="80" height="20" as="geometry" />
        </mxCell>
        <mxCell id="C6Ept4q3sVwMuoM6jzrB-5" value="" style="endArrow=classic;html=1;exitX=0;exitY=0.909;exitDx=0;exitDy=0;exitPerimeter=0;" edge="1" parent="1" source="C6Ept4q3sVwMuoM6jzrB-2">
          <mxGeometry width="50" height="50" relative="1" as="geometry">
            <mxPoint x="90" y="500" as="sourcePoint" />
            <mxPoint x="10" y="480" as="targetPoint" />
          </mxGeometry>
        </mxCell>
        <mxCell id="C6Ept4q3sVwMuoM6jzrB-6" value="text: string" style="text;html=1;align=center;verticalAlign=middle;resizable=0;points=[];autosize=1;" vertex="1" parent="1">
          <mxGeometry x="45" y="460" width="70" height="20" as="geometry" />
        </mxCell>
        <mxCell id="C6Ept4q3sVwMuoM6jzrB-8" value="get&lt;br&gt;Final&lt;br&gt;Items" style="rounded=0;whiteSpace=wrap;html=1;" vertex="1" parent="1">
          <mxGeometry x="360" y="80" width="80" height="240" as="geometry" />
        </mxCell>
        <mxCell id="C6Ept4q3sVwMuoM6jzrB-9" value="render" style="rounded=0;whiteSpace=wrap;html=1;" vertex="1" parent="1">
          <mxGeometry x="360" y="360" width="80" height="160" as="geometry" />
        </mxCell>
        <mxCell id="C6Ept4q3sVwMuoM6jzrB-10" value="" style="endArrow=classic;html=1;entryX=-0.033;entryY=0.096;entryDx=0;entryDy=0;entryPerimeter=0;" edge="1" parent="1">
          <mxGeometry width="50" height="50" relative="1" as="geometry">
            <mxPoint x="240" y="120" as="sourcePoint" />
            <mxPoint x="360" y="120.24000000000001" as="targetPoint" />
          </mxGeometry>
        </mxCell>
        <mxCell id="C6Ept4q3sVwMuoM6jzrB-11" value="" style="endArrow=classic;html=1;exitX=0;exitY=0.909;exitDx=0;exitDy=0;exitPerimeter=0;" edge="1" parent="1">
          <mxGeometry width="50" height="50" relative="1" as="geometry">
            <mxPoint x="360" y="280.0000000000001" as="sourcePoint" />
            <mxPoint x="240" y="280" as="targetPoint" />
          </mxGeometry>
        </mxCell>
        <mxCell id="C6Ept4q3sVwMuoM6jzrB-12" value="tags: string[]" style="text;html=1;align=center;verticalAlign=middle;resizable=0;points=[];autosize=1;" vertex="1" parent="1">
          <mxGeometry x="260" y="100" width="80" height="20" as="geometry" />
        </mxCell>
        <mxCell id="C6Ept4q3sVwMuoM6jzrB-13" value="items: Data[]" style="text;html=1;align=center;verticalAlign=middle;resizable=0;points=[];autosize=1;" vertex="1" parent="1">
          <mxGeometry x="260" y="260" width="80" height="20" as="geometry" />
        </mxCell>
        <mxCell id="C6Ept4q3sVwMuoM6jzrB-14" value="" style="endArrow=classic;html=1;entryX=-0.033;entryY=0.096;entryDx=0;entryDy=0;entryPerimeter=0;" edge="1" parent="1">
          <mxGeometry width="50" height="50" relative="1" as="geometry">
            <mxPoint x="240" y="400.00000000000006" as="sourcePoint" />
            <mxPoint x="360" y="400.24000000000007" as="targetPoint" />
          </mxGeometry>
        </mxCell>
        <mxCell id="C6Ept4q3sVwMuoM6jzrB-15" value="" style="endArrow=classic;html=1;exitX=0;exitY=0.909;exitDx=0;exitDy=0;exitPerimeter=0;" edge="1" parent="1">
          <mxGeometry width="50" height="50" relative="1" as="geometry">
            <mxPoint x="360" y="480.00000000000017" as="sourcePoint" />
            <mxPoint x="240" y="480.00000000000006" as="targetPoint" />
          </mxGeometry>
        </mxCell>
        <mxCell id="C6Ept4q3sVwMuoM6jzrB-16" value="tags: string[]" style="text;html=1;align=center;verticalAlign=middle;resizable=0;points=[];autosize=1;" vertex="1" parent="1">
          <mxGeometry x="260" y="380.00000000000006" width="80" height="20" as="geometry" />
        </mxCell>
        <mxCell id="C6Ept4q3sVwMuoM6jzrB-17" value="items: Data[]" style="text;html=1;align=center;verticalAlign=middle;resizable=0;points=[];autosize=1;" vertex="1" parent="1">
          <mxGeometry x="260" y="460.00000000000006" width="80" height="20" as="geometry" />
        </mxCell>
        <mxCell id="C6Ept4q3sVwMuoM6jzrB-18" value="get&lt;br&gt;Items&lt;br&gt;Count" style="rounded=0;whiteSpace=wrap;html=1;" vertex="1" parent="1">
          <mxGeometry x="560" y="80" width="80" height="120" as="geometry" />
        </mxCell>
        <mxCell id="C6Ept4q3sVwMuoM6jzrB-19" value="" style="endArrow=classic;html=1;entryX=-0.033;entryY=0.096;entryDx=0;entryDy=0;entryPerimeter=0;" edge="1" parent="1">
          <mxGeometry width="50" height="50" relative="1" as="geometry">
            <mxPoint x="440" y="120" as="sourcePoint" />
            <mxPoint x="560" y="120.24000000000012" as="targetPoint" />
          </mxGeometry>
        </mxCell>
        <mxCell id="C6Ept4q3sVwMuoM6jzrB-20" value="" style="endArrow=classic;html=1;exitX=0;exitY=0.909;exitDx=0;exitDy=0;exitPerimeter=0;" edge="1" parent="1">
          <mxGeometry width="50" height="50" relative="1" as="geometry">
            <mxPoint x="560" y="300.0000000000001" as="sourcePoint" />
            <mxPoint x="440" y="300" as="targetPoint" />
          </mxGeometry>
        </mxCell>
        <mxCell id="C6Ept4q3sVwMuoM6jzrB-21" value="tags: string[]" style="text;html=1;align=center;verticalAlign=middle;resizable=0;points=[];autosize=1;" vertex="1" parent="1">
          <mxGeometry x="460" y="80" width="80" height="20" as="geometry" />
        </mxCell>
        <mxCell id="C6Ept4q3sVwMuoM6jzrB-22" value="items: Data[]" style="text;html=1;align=center;verticalAlign=middle;resizable=0;points=[];autosize=1;" vertex="1" parent="1">
          <mxGeometry x="460" y="280" width="80" height="20" as="geometry" />
        </mxCell>
        <mxCell id="C6Ept4q3sVwMuoM6jzrB-23" value="get&lt;br&gt;Barcode&lt;br&gt;InPromotions" style="rounded=0;whiteSpace=wrap;html=1;" vertex="1" parent="1">
          <mxGeometry x="560" y="220" width="80" height="100" as="geometry" />
        </mxCell>
        <mxCell id="C6Ept4q3sVwMuoM6jzrB-24" value="" style="endArrow=classic;html=1;exitX=0;exitY=0.909;exitDx=0;exitDy=0;exitPerimeter=0;" edge="1" parent="1">
          <mxGeometry width="50" height="50" relative="1" as="geometry">
            <mxPoint x="560" y="430.0000000000001" as="sourcePoint" />
            <mxPoint x="440" y="430" as="targetPoint" />
          </mxGeometry>
        </mxCell>
        <mxCell id="C6Ept4q3sVwMuoM6jzrB-25" value="item: string" style="text;html=1;align=center;verticalAlign=middle;resizable=0;points=[];autosize=1;" vertex="1" parent="1">
          <mxGeometry x="465" y="410" width="70" height="20" as="geometry" />
        </mxCell>
        <mxCell id="C6Ept4q3sVwMuoM6jzrB-26" value="renderSingle&lt;br&gt;Item" style="rounded=0;whiteSpace=wrap;html=1;" vertex="1" parent="1">
          <mxGeometry x="560" y="360" width="80" height="80" as="geometry" />
        </mxCell>
        <mxCell id="C6Ept4q3sVwMuoM6jzrB-27" value="" style="endArrow=classic;html=1;exitX=0;exitY=0.909;exitDx=0;exitDy=0;exitPerimeter=0;" edge="1" parent="1">
          <mxGeometry width="50" height="50" relative="1" as="geometry">
            <mxPoint x="560" y="160.0000000000001" as="sourcePoint" />
            <mxPoint x="440" y="160" as="targetPoint" />
          </mxGeometry>
        </mxCell>
        <mxCell id="C6Ept4q3sVwMuoM6jzrB-28" value="count: number[]" style="text;html=1;align=center;verticalAlign=middle;resizable=0;points=[];autosize=1;" vertex="1" parent="1">
          <mxGeometry x="450" y="140" width="100" height="20" as="geometry" />
        </mxCell>
        <mxCell id="C6Ept4q3sVwMuoM6jzrB-29" value="tagsFiltered: string[]" style="text;html=1;align=center;verticalAlign=middle;resizable=0;points=[];autosize=1;" vertex="1" parent="1">
          <mxGeometry x="440" y="100" width="120" height="20" as="geometry" />
        </mxCell>
        <mxCell id="C6Ept4q3sVwMuoM6jzrB-33" value="" style="endArrow=classic;html=1;entryX=-0.033;entryY=0.096;entryDx=0;entryDy=0;entryPerimeter=0;" edge="1" parent="1">
          <mxGeometry width="50" height="50" relative="1" as="geometry">
            <mxPoint x="440" y="257" as="sourcePoint" />
            <mxPoint x="560" y="257.2400000000001" as="targetPoint" />
          </mxGeometry>
        </mxCell>
        <mxCell id="C6Ept4q3sVwMuoM6jzrB-34" value="tags: string[]" style="text;html=1;align=center;verticalAlign=middle;resizable=0;points=[];autosize=1;" vertex="1" parent="1">
          <mxGeometry x="460" y="236" width="80" height="20" as="geometry" />
        </mxCell>
        <mxCell id="C6Ept4q3sVwMuoM6jzrB-36" value="tagsFiltered: string[]" style="text;html=1;align=center;verticalAlign=middle;resizable=0;points=[];autosize=1;" vertex="1" parent="1">
          <mxGeometry x="440" y="219" width="120" height="20" as="geometry" />
        </mxCell>
        <mxCell id="C6Ept4q3sVwMuoM6jzrB-37" value="" style="endArrow=classic;html=1;entryX=-0.033;entryY=0.096;entryDx=0;entryDy=0;entryPerimeter=0;" edge="1" parent="1">
          <mxGeometry width="50" height="50" relative="1" as="geometry">
            <mxPoint x="440" y="390" as="sourcePoint" />
            <mxPoint x="560" y="390.2400000000001" as="targetPoint" />
          </mxGeometry>
        </mxCell>
        <mxCell id="C6Ept4q3sVwMuoM6jzrB-38" value="item: Item" style="text;html=1;align=center;verticalAlign=middle;resizable=0;points=[];autosize=1;" vertex="1" parent="1">
          <mxGeometry x="465" y="350" width="70" height="20" as="geometry" />
        </mxCell>
        <mxCell id="C6Ept4q3sVwMuoM6jzrB-39" value="subtotal: number" style="text;html=1;align=center;verticalAlign=middle;resizable=0;points=[];autosize=1;" vertex="1" parent="1">
          <mxGeometry x="445" y="370" width="110" height="20" as="geometry" />
        </mxCell>
      </root>
    </mxGraphModel>
  </diagram>
</mxfile>
